<svg xmlns="http://www.w3.org/2000/svg" viewBox="0 0 1200 700" role="img" aria-label="River of Conditions realm art">
  <defs>
    <linearGradient id="riverSky" x1="0" y1="0" x2="0" y2="1">
      <stop offset="0%" stop-color="#03111f" />
      <stop offset="48%" stop-color="#0a2038" />
      <stop offset="100%" stop-color="#08131d" />
    </linearGradient>
    <radialGradient id="riverMoonGlow" cx="50%" cy="50%" r="58%">
      <stop offset="0%" stop-color="#e0f2fe" stop-opacity="0.95" />
      <stop offset="50%" stop-color="#7dd3fc" stop-opacity="0.26" />
      <stop offset="100%" stop-color="#7dd3fc" stop-opacity="0" />
    </radialGradient>
    <linearGradient id="cliff" x1="0" y1="0" x2="0" y2="1">
      <stop offset="0%" stop-color="#16253d" />
      <stop offset="100%" stop-color="#08131d" />
    </linearGradient>
    <linearGradient id="water" x1="0" y1="0" x2="1" y2="1">
      <stop offset="0%" stop-color="#67e8f9" />
      <stop offset="45%" stop-color="#38bdf8" />
      <stop offset="100%" stop-color="#2563eb" />
    </linearGradient>
    <linearGradient id="waterGlow" x1="0" y1="0" x2="1" y2="0">
      <stop offset="0%" stop-color="#e0f2fe" stop-opacity="0.8" />
      <stop offset="100%" stop-color="#7dd3fc" stop-opacity="0" />
    </linearGradient>
    <filter id="riverBlur" x="-20%" y="-20%" width="140%" height="140%">
      <feGaussianBlur stdDeviation="18" />
    </filter>
  </defs>

  <rect width="1200" height="700" fill="url(#riverSky)" />
  <circle cx="206" cy="124" r="122" fill="url(#riverMoonGlow)" />
  <circle cx="206" cy="124" r="44" fill="#e0f2fe" opacity="0.9" />

  <g opacity="0.85">
    <circle cx="94" cy="74" r="2" fill="#e0f2fe" />
    <circle cx="144" cy="52" r="1.5" fill="#bae6fd" />
    <circle cx="444" cy="82" r="2.2" fill="#fef3c7" />
    <circle cx="628" cy="64" r="1.7" fill="#d1fae5" />
    <circle cx="824" cy="94" r="2.3" fill="#e0f2fe" />
    <circle cx="1084" cy="76" r="2.1" fill="#fef3c7" />
  </g>

  <g filter="url(#riverBlur)" opacity="0.68">
    <circle cx="376" cy="214" r="168" fill="#38bdf8" />
    <circle cx="860" cy="224" r="188" fill="#2563eb" opacity="0.62" />
    <circle cx="1022" cy="168" r="116" fill="#34d399" opacity="0.22" />
  </g>

  <path d="M0 322c112-84 218-98 340-52 98 38 190 36 296-10 128-56 254-58 564 54V700H0Z" fill="#0a1728" />
  <path d="M0 404c102-48 194-58 284-34 78 20 152 18 224-10 90-36 186-62 298-60 156 2 270 50 394 106V700H0Z" fill="url(#cliff)" />

  <path d="M210 700c30-138 72-204 158-290 72-72 152-124 220-210 22-28 42-60 56-96h174c-14 76-10 140 18 204 32 74 98 122 146 194 56 82 98 154 126 198Z" fill="#08131d" opacity="0.55" />
  <path d="M648 90c-28 82-72 142-126 196-72 72-170 126-230 216-48 72-80 126-106 198h734c-22-46-48-96-90-156-58-82-144-138-182-226-26-62-30-132 0-228Z" fill="none" stroke="rgba(96,165,250,0.08)" stroke-width="2" />

  <path d="M660 96c-20 78-56 136-106 188-72 74-170 126-232 214-52 74-88 130-118 202h356c4-102 44-174 118-240 70-62 148-108 194-184 38-64 50-118 62-180Z" fill="url(#water)" opacity="0.92" />
  <path d="M720 700c4-112 52-194 134-262 58-48 118-84 152-142 32-54 42-110 54-200" fill="none" stroke="url(#waterGlow)" stroke-width="22" stroke-linecap="round" />
  <path d="M392 700c24-94 62-166 124-228 64-64 148-116 202-194 38-54 58-110 74-182" fill="none" stroke="#e0f2fe" stroke-opacity="0.5" stroke-width="10" stroke-linecap="round" />

  <g transform="translate(430 258)">
    <path d="M0 54c38-28 88-44 128-44s82 16 118 42l-6 18c-28-14-60-22-96-22-46 0-88 14-132 42Z" fill="#0f172a" stroke="#7dd3fc" stroke-opacity="0.3" />
    <path d="M122 0v118" stroke="#fef3c7" stroke-opacity="0.65" stroke-width="4" stroke-linecap="round" />
    <path d="M52 42h140" stroke="#fef3c7" stroke-opacity="0.35" stroke-dasharray="8 10" stroke-width="3" stroke-linecap="round" />
    <circle cx="122" cy="58" r="34" fill="#0b1a2c" stroke="#34d399" stroke-opacity="0.35" />
    <text x="122" y="67" text-anchor="middle" fill="#d1fae5" font-size="30" font-family="Georgia, serif">if</text>
  </g>

  <g transform="translate(874 330)">
    <rect x="0" y="0" width="128" height="96" rx="22" fill="#10233c" stroke="#38bdf8" stroke-opacity="0.34" />
    <rect x="12" y="12" width="104" height="72" rx="14" fill="#08131d" stroke="#7dd3fc" stroke-opacity="0.22" />
    <text x="64" y="54" text-anchor="middle" fill="#e0f2fe" font-size="32" font-family="Georgia, serif">==</text>
    <text x="64" y="76" text-anchor="middle" fill="#a5f3fc" font-size="14" font-family="Georgia, serif">choose the safe route</text>
  </g>

  <g transform="translate(152 404)">
    <rect x="0" y="0" width="138" height="104" rx="22" fill="#13253d" stroke="#fbbf24" stroke-opacity="0.34" />
    <rect x="12" y="12" width="114" height="80" rx="14" fill="#08131d" stroke="#34d399" stroke-opacity="0.22" />
    <text x="69" y="52" text-anchor="middle" fill="#fef3c7" font-size="28" font-family="Georgia, serif">else</text>
    <text x="69" y="76" text-anchor="middle" fill="#bae6fd" font-size="14" font-family="Georgia, serif">the current turns away</text>
  </g>

  <g opacity="0.88">
    <circle cx="334" cy="474" r="5" fill="#a5f3fc" />
    <circle cx="506" cy="392" r="4" fill="#fef3c7" />
    <circle cx="658" cy="522" r="4" fill="#d1fae5" />
    <circle cx="830" cy="284" r="4" fill="#7dd3fc" />
    <circle cx="962" cy="254" r="5" fill="#fef3c7" />
    <circle cx="1086" cy="476" r="4" fill="#bbf7d0" />
  </g>
</svg>
